<mxfile host="app.diagrams.net" modified="2021-03-31T06:23:21.657Z" agent="5.0 (Windows NT 10.0; Win64; x64) AppleWebKit/537.36 (KHTML, like Gecko) Chrome/89.0.4389.90 Safari/537.36 Edg/89.0.774.63" etag="iMzNhGh44UoEQujG56ZR" version="14.2.4" type="github">
  <diagram id="o2zER70WIKOwPB2oxGrm" name="Page-1">
    <mxGraphModel dx="1856" dy="613" grid="1" gridSize="10" guides="1" tooltips="1" connect="1" arrows="1" fold="1" page="1" pageScale="1" pageWidth="827" pageHeight="1169" math="0" shadow="0">
      <root>
        <mxCell id="0" />
        <mxCell id="1" parent="0" />
        <mxCell id="AytMc7SCbhSqMMA70tcu-1" value="Kafka brokers" style="rounded=1;whiteSpace=wrap;html=1;fillColor=#d5e8d4;strokeColor=#82b366;" vertex="1" parent="1">
          <mxGeometry x="-70" y="190" width="120" height="60" as="geometry" />
        </mxCell>
        <mxCell id="AytMc7SCbhSqMMA70tcu-2" value="规则数量：100&lt;br&gt;吞吐量：10w eps" style="rounded=1;whiteSpace=wrap;html=1;fillColor=#fff2cc;strokeColor=#d6b656;" vertex="1" parent="1">
          <mxGeometry x="210" y="80" width="120" height="80" as="geometry" />
        </mxCell>
        <mxCell id="AytMc7SCbhSqMMA70tcu-3" value="consumer-group-1" style="endArrow=classic;html=1;exitX=1;exitY=0.5;exitDx=0;exitDy=0;entryX=0;entryY=0.5;entryDx=0;entryDy=0;" edge="1" parent="1" source="AytMc7SCbhSqMMA70tcu-1" target="AytMc7SCbhSqMMA70tcu-2">
          <mxGeometry x="0.001" relative="1" as="geometry">
            <mxPoint x="100" y="220" as="sourcePoint" />
            <mxPoint x="200" y="250" as="targetPoint" />
            <Array as="points">
              <mxPoint x="110" y="220" />
              <mxPoint x="150" y="120" />
            </Array>
            <mxPoint as="offset" />
          </mxGeometry>
        </mxCell>
        <mxCell id="AytMc7SCbhSqMMA70tcu-4" value="数据源采集日志" style="rounded=1;whiteSpace=wrap;html=1;dashed=1;" vertex="1" parent="1">
          <mxGeometry x="-290" y="190" width="120" height="60" as="geometry" />
        </mxCell>
        <mxCell id="AytMc7SCbhSqMMA70tcu-5" value="10w+ eps" style="endArrow=classic;html=1;exitX=1;exitY=0.5;exitDx=0;exitDy=0;entryX=0;entryY=0.5;entryDx=0;entryDy=0;" edge="1" parent="1" source="AytMc7SCbhSqMMA70tcu-4" target="AytMc7SCbhSqMMA70tcu-1">
          <mxGeometry relative="1" as="geometry">
            <mxPoint x="90" y="240" as="sourcePoint" />
            <mxPoint x="165" y="240" as="targetPoint" />
            <Array as="points" />
          </mxGeometry>
        </mxCell>
        <mxCell id="AytMc7SCbhSqMMA70tcu-6" value="&lt;span style=&quot;color: rgb(0 , 0 , 0) ; font-family: &amp;#34;helvetica&amp;#34; ; font-size: 12px ; font-style: normal ; font-weight: 400 ; letter-spacing: normal ; text-align: center ; text-indent: 0px ; text-transform: none ; word-spacing: 0px ; background-color: rgb(248 , 249 , 250) ; display: inline ; float: none&quot;&gt;主机A：SAE-CORE&lt;/span&gt;" style="text;whiteSpace=wrap;html=1;" vertex="1" parent="1">
          <mxGeometry x="210" y="60" width="145" height="30" as="geometry" />
        </mxCell>
        <mxCell id="AytMc7SCbhSqMMA70tcu-7" value="规则数量：100&lt;br&gt;吞吐量：1w eps" style="rounded=1;whiteSpace=wrap;html=1;fillColor=#fff2cc;strokeColor=#d6b656;" vertex="1" parent="1">
          <mxGeometry x="210" y="290" width="120" height="80" as="geometry" />
        </mxCell>
        <mxCell id="AytMc7SCbhSqMMA70tcu-9" value="&lt;span style=&quot;font-size: 30px&quot;&gt;......&lt;/span&gt;" style="text;html=1;align=center;verticalAlign=middle;whiteSpace=wrap;rounded=0;" vertex="1" parent="1">
          <mxGeometry x="205" y="210" width="130" height="20" as="geometry" />
        </mxCell>
        <mxCell id="AytMc7SCbhSqMMA70tcu-10" value="consumer-group-2" style="endArrow=classic;html=1;exitX=1;exitY=0.5;exitDx=0;exitDy=0;entryX=0;entryY=0.5;entryDx=0;entryDy=0;" edge="1" parent="1" source="AytMc7SCbhSqMMA70tcu-1" target="AytMc7SCbhSqMMA70tcu-7">
          <mxGeometry relative="1" as="geometry">
            <mxPoint x="100" y="220" as="sourcePoint" />
            <mxPoint x="220" y="110" as="targetPoint" />
            <Array as="points">
              <mxPoint x="110" y="220" />
              <mxPoint x="150" y="330" />
            </Array>
          </mxGeometry>
        </mxCell>
        <mxCell id="AytMc7SCbhSqMMA70tcu-14" value="Thread -1" style="text;html=1;strokeColor=none;fillColor=none;align=center;verticalAlign=middle;whiteSpace=wrap;rounded=0;" vertex="1" parent="1">
          <mxGeometry x="225" y="160" width="90" height="20" as="geometry" />
        </mxCell>
        <mxCell id="AytMc7SCbhSqMMA70tcu-15" value="Thread -4" style="text;html=1;strokeColor=none;fillColor=none;align=center;verticalAlign=middle;whiteSpace=wrap;rounded=0;" vertex="1" parent="1">
          <mxGeometry x="225" y="370" width="90" height="20" as="geometry" />
        </mxCell>
        <mxCell id="AytMc7SCbhSqMMA70tcu-19" value="&lt;span style=&quot;color: rgb(0 , 0 , 0) ; font-family: &amp;#34;helvetica&amp;#34; ; font-size: 12px ; font-style: normal ; font-weight: 400 ; letter-spacing: normal ; text-align: center ; text-indent: 0px ; text-transform: none ; word-spacing: 0px ; background-color: rgb(248 , 249 , 250) ; display: inline ; float: none&quot;&gt;主机C：SAE-CORE（Slow）&lt;/span&gt;" style="text;whiteSpace=wrap;html=1;" vertex="1" parent="1">
          <mxGeometry x="210" y="270" width="170" height="30" as="geometry" />
        </mxCell>
        <mxCell id="AytMc7SCbhSqMMA70tcu-20" value="&lt;h1 style=&quot;font-size: 18px&quot;&gt;慢规则引擎&lt;/h1&gt;&lt;p&gt;&lt;font style=&quot;font-size: 12px&quot;&gt;将可能性能吞吐的慢规则单独运行&lt;/font&gt;&lt;/p&gt;&lt;p&gt;隔离慢规则可能产生的反压，避免影响关键规则运行&lt;/p&gt;" style="text;html=1;strokeColor=#666666;fillColor=#f5f5f5;spacing=5;spacingTop=-20;whiteSpace=wrap;overflow=hidden;rounded=0;dashed=1;fontColor=#333333;" vertex="1" parent="1">
          <mxGeometry x="355" y="160" width="205" height="100" as="geometry" />
        </mxCell>
        <mxCell id="AytMc7SCbhSqMMA70tcu-21" value="" style="endArrow=classic;html=1;exitX=0.25;exitY=1;exitDx=0;exitDy=0;entryX=1;entryY=0.5;entryDx=0;entryDy=0;" edge="1" parent="1" source="AytMc7SCbhSqMMA70tcu-20" target="AytMc7SCbhSqMMA70tcu-7">
          <mxGeometry width="50" height="50" relative="1" as="geometry">
            <mxPoint x="102.5" y="110" as="sourcePoint" />
            <mxPoint x="150" y="205" as="targetPoint" />
            <Array as="points">
              <mxPoint x="380" y="330" />
            </Array>
          </mxGeometry>
        </mxCell>
      </root>
    </mxGraphModel>
  </diagram>
</mxfile>
